<svg width="72" height="72" viewBox="0 0 72 72" fill="none" xmlns="http://www.w3.org/2000/svg">
<g filter="url(#filter0_d_1_4596)">
<path d="M54 54C63.9411 44.0589 63.9411 27.9411 54 18C44.0589 8.05888 27.9411 8.05888 18 18C8.05887 27.9411 8.05887 44.0589 18 54C27.9411 63.9411 44.0589 63.9411 54 54Z" fill="url(#paint0_linear_1_4596)"/>
<path d="M60.5015 36.0011C60.5015 49.5336 49.5317 60.5034 35.9991 60.5034C22.4666 60.5034 11.4961 49.533 11.4961 36.0011C11.4961 22.4692 22.4666 11.498 35.9998 11.498C49.533 11.498 60.5021 22.4685 60.5021 36.0011H60.5015Z" fill="url(#paint1_linear_1_4596)"/>
<path d="M41.7391 43.5996C40.6714 45.4726 38.6604 46.7382 36.3499 46.7382C34.0403 46.7382 32.0285 45.4726 30.9608 43.5996H22V50.6997H50.6999V43.5996H41.7391Z" fill="#008474"/>
<path d="M43.2272 33.2109H39.0721V22H33.6305V33.2109H29.4746L36.3509 41.7312L43.2272 33.2109Z" fill="#008474"/>
</g>
<defs>
<filter id="filter0_d_1_4596" x="6.54419" y="10.5439" width="58.9116" height="58.9121" filterUnits="userSpaceOnUse" color-interpolation-filters="sRGB">
<feFlood flood-opacity="0" result="BackgroundImageFix"/>
<feColorMatrix in="SourceAlpha" type="matrix" values="0 0 0 0 0 0 0 0 0 0 0 0 0 0 0 0 0 0 127 0" result="hardAlpha"/>
<feOffset dy="4"/>
<feGaussianBlur stdDeviation="2"/>
<feComposite in2="hardAlpha" operator="out"/>
<feColorMatrix type="matrix" values="0 0 0 0 0 0 0 0 0 0 0 0 0 0 0 0 0 0 0.25 0"/>
<feBlend mode="normal" in2="BackgroundImageFix" result="effect1_dropShadow_1_4596"/>
<feBlend mode="normal" in="SourceGraphic" in2="effect1_dropShadow_1_4596" result="shape"/>
</filter>
<linearGradient id="paint0_linear_1_4596" x1="52.3327" y1="82.4234" x2="18.3704" y2="-14.112" gradientUnits="userSpaceOnUse">
<stop stop-color="#E3E3E2"/>
<stop offset="0.8" stop-color="white"/>
</linearGradient>
<linearGradient id="paint1_linear_1_4596" x1="6.75781" y1="5.79699" x2="69.067" y2="70.157" gradientUnits="userSpaceOnUse">
<stop stop-color="#F1F1F1"/>
<stop offset="0.8" stop-color="white"/>
</linearGradient>
</defs>
</svg>
