<svg width="24" height="25" viewBox="0 0 24 25" fill="none" xmlns="http://www.w3.org/2000/svg">
<path d="M24 12.5538C24 19.1742 18.6274 24.5411 12 24.5411C5.37256 24.5411 0 19.1742 0 12.5538C0 5.93331 5.37256 0.566406 12 0.566406C18.6274 0.566406 24 5.93331 24 12.5538ZM10.612 18.901L19.5152 10.0071C19.8175 9.70512 19.8175 9.21543 19.5152 8.91342L18.4203 7.81972C18.118 7.51767 17.6278 7.51767 17.3254 7.81972L10.0645 15.0729L6.67456 11.6866C6.37224 11.3846 5.88203 11.3846 5.57966 11.6866L4.48481 12.7803C4.18248 13.0823 4.18248 13.572 4.48481 13.874L9.51707 18.9009C9.81944 19.203 10.3096 19.203 10.612 18.901Z" fill="#FAC40A"/>
</svg>
