<svg width="48" height="48" viewBox="0 0 48 48" fill="none" xmlns="http://www.w3.org/2000/svg">
<g filter="url(#filter0_d_96_17573)">
<path d="M12 12C5.37258 18.6274 5.37258 29.3726 12 36C18.6274 42.6274 29.3726 42.6274 36 36C42.6274 29.3726 42.6274 18.6274 36 12C29.3726 5.37258 18.6274 5.37258 12 12Z" fill="url(#paint0_linear_96_17573)"/>
<path d="M7.66471 24.0006C7.66471 14.9789 14.9779 7.66569 23.9996 7.66569C33.0213 7.66569 40.335 14.9793 40.335 24.0006C40.335 33.0219 33.0213 40.3359 23.9992 40.3359C14.977 40.3359 7.66427 33.0223 7.66427 24.0006L7.66471 24.0006Z" fill="url(#paint1_linear_96_17573)"/>
<path d="M27.7168 28.5625L20.1106 23.2382L27.7168 17.9139" stroke="#008474" stroke-width="2.28185"/>
</g>
<defs>
<filter id="filter0_d_96_17573" x="4.36263" y="7.0293" width="39.2747" height="39.2747" filterUnits="userSpaceOnUse" color-interpolation-filters="sRGB">
<feFlood flood-opacity="0" result="BackgroundImageFix"/>
<feColorMatrix in="SourceAlpha" type="matrix" values="0 0 0 0 0 0 0 0 0 0 0 0 0 0 0 0 0 0 127 0" result="hardAlpha"/>
<feOffset dy="2.66667"/>
<feGaussianBlur stdDeviation="1.33333"/>
<feComposite in2="hardAlpha" operator="out"/>
<feColorMatrix type="matrix" values="0 0 0 0 0 0 0 0 0 0 0 0 0 0 0 0 0 0 0.25 0"/>
<feBlend mode="normal" in2="BackgroundImageFix" result="effect1_dropShadow_96_17573"/>
<feBlend mode="normal" in="SourceGraphic" in2="effect1_dropShadow_96_17573" result="shape"/>
</filter>
<linearGradient id="paint0_linear_96_17573" x1="13.1115" y1="-6.94894" x2="35.7531" y2="57.408" gradientUnits="userSpaceOnUse">
<stop stop-color="#E3E3E2"/>
<stop offset="0.8" stop-color="white"/>
</linearGradient>
<linearGradient id="paint1_linear_96_17573" x1="43.4938" y1="44.1366" x2="1.95437" y2="1.22995" gradientUnits="userSpaceOnUse">
<stop stop-color="#F1F1F1"/>
<stop offset="0.8" stop-color="white"/>
</linearGradient>
</defs>
</svg>
