<svg width="48" height="48" viewBox="0 0 48 48" fill="none" xmlns="http://www.w3.org/2000/svg">
<g filter="url(#filter0_d_96_17318)">
<path d="M36 36C42.6274 29.3726 42.6274 18.6274 36 12C29.3726 5.37258 18.6274 5.37258 12 12C5.37258 18.6274 5.37258 29.3726 12 36C18.6274 42.6274 29.3726 42.6274 36 36Z" fill="url(#paint0_linear_96_17318)"/>
<path d="M40.3353 23.9994C40.3353 33.0211 33.0221 40.3343 24.0004 40.3343C14.9787 40.3343 7.66504 33.0207 7.66504 23.9994C7.66504 14.9781 14.9787 7.66406 24.0008 7.66406C33.023 7.66406 40.3357 14.9777 40.3357 23.9994H40.3353Z" fill="url(#paint1_linear_96_17318)"/>
<path d="M20.2832 19.4375L27.8894 24.7618L20.2832 30.0861" stroke="#008474" stroke-width="2.28185"/>
</g>
<defs>
<filter id="filter0_d_96_17318" x="4.36263" y="7.0293" width="39.2747" height="39.2747" filterUnits="userSpaceOnUse" color-interpolation-filters="sRGB">
<feFlood flood-opacity="0" result="BackgroundImageFix"/>
<feColorMatrix in="SourceAlpha" type="matrix" values="0 0 0 0 0 0 0 0 0 0 0 0 0 0 0 0 0 0 127 0" result="hardAlpha"/>
<feOffset dy="2.66667"/>
<feGaussianBlur stdDeviation="1.33333"/>
<feComposite in2="hardAlpha" operator="out"/>
<feColorMatrix type="matrix" values="0 0 0 0 0 0 0 0 0 0 0 0 0 0 0 0 0 0 0.25 0"/>
<feBlend mode="normal" in2="BackgroundImageFix" result="effect1_dropShadow_96_17318"/>
<feBlend mode="normal" in="SourceGraphic" in2="effect1_dropShadow_96_17318" result="shape"/>
</filter>
<linearGradient id="paint0_linear_96_17318" x1="34.8885" y1="54.9489" x2="12.2469" y2="-9.408" gradientUnits="userSpaceOnUse">
<stop stop-color="#E3E3E2"/>
<stop offset="0.8" stop-color="white"/>
</linearGradient>
<linearGradient id="paint1_linear_96_17318" x1="4.50618" y1="3.86336" x2="46.0456" y2="46.77" gradientUnits="userSpaceOnUse">
<stop stop-color="#F1F1F1"/>
<stop offset="0.8" stop-color="white"/>
</linearGradient>
</defs>
</svg>
