<svg width="63" height="63" viewBox="0 0 63 63" fill="none" xmlns="http://www.w3.org/2000/svg">
<path d="M46.895 46.6454C55.3912 38.1492 55.3912 24.3742 46.895 15.878C38.3988 7.38181 24.6238 7.38181 16.1276 15.878C7.63142 24.3742 7.63142 38.1492 16.1276 46.6454C24.6238 55.1416 38.3988 55.1416 46.895 46.6454Z" fill="url(#paint0_linear_1_16969)"/>
<path d="M52.8825 30.9415C52.8825 42.5071 43.5071 51.8825 31.9415 51.8825C20.3759 51.8825 11 42.5066 11 30.9415C11 19.3765 20.3759 10 31.9421 10C43.5083 10 52.883 19.3759 52.883 30.9415H52.8825Z" fill="url(#paint1_linear_1_16969)"/>
<path d="M20.661 21H42.3391C43.2569 21 44 21.7439 44 22.6609V36.5266C44 37.4436 43.2569 38.1875 42.3391 38.1875H33.2578V38.5575C33.2578 39.4746 34.001 40.2185 34.9188 40.2185H37.3594V42.1716H33.7858H29.2142H25.6407V40.2185H28.0813C28.9991 40.2185 29.7422 39.4746 29.7422 38.5575V38.1875H20.661C19.7432 38.1875 19.0001 37.4437 19.0001 36.5266V22.6609C19.0001 21.7439 19.7432 21 20.661 21ZM21.3438 34.5086C21.3438 34.8145 21.5918 35.0625 21.8977 35.0625H41.1024C41.4083 35.0625 41.6563 34.8145 41.6563 34.5086V23.8976C41.6563 23.5917 41.4083 23.3437 41.1024 23.3437H21.8977C21.5917 23.3437 21.3438 23.5917 21.3438 23.8976V34.5086H21.3438Z" fill="#008474"/>
<defs>
<linearGradient id="paint0_linear_1_16969" x1="45.4701" y1="70.9375" x2="16.4442" y2="-11.5665" gradientUnits="userSpaceOnUse">
<stop stop-color="#E3E3E2"/>
<stop offset="0.8" stop-color="white"/>
</linearGradient>
<linearGradient id="paint1_linear_1_16969" x1="6.95042" y1="5.12759" x2="60.203" y2="60.1329" gradientUnits="userSpaceOnUse">
<stop stop-color="#F1F1F1"/>
<stop offset="0.8" stop-color="white"/>
</linearGradient>
</defs>
</svg>
