<svg width="26" height="31" viewBox="0 0 26 31" fill="none" xmlns="http://www.w3.org/2000/svg">
<path d="M5.1564e-06 2.50781V28.4887C5.1564e-06 30.4698 2.22962 31.6736 3.94669 30.5952L24.8077 17.6048C25.1729 17.3786 25.4738 17.0657 25.6822 16.6952C25.8907 16.3247 26 15.9086 26 15.4857C26 15.0628 25.8907 14.6467 25.6822 14.2762C25.4738 13.9057 25.1729 13.5928 24.8077 13.3666L3.94669 0.401259C3.56014 0.156608 3.11327 0.0185848 2.65324 0.00174887C2.19321 -0.015087 1.73706 0.0898886 1.33292 0.305602C0.928772 0.521315 0.591618 0.839768 0.357021 1.22737C0.122423 1.61496 -0.0009191 2.05734 5.1564e-06 2.50781Z" fill="#008474"/>
</svg>
